<?xml version="1.0" encoding="utf-8"?>
<!-- Generator: Adobe Illustrator 24.0.0, SVG Export Plug-In . SVG Version: 6.00 Build 0)  -->
<svg version="1.1" id="Layer_1" xmlns="http://www.w3.org/2000/svg" xmlns:xlink="http://www.w3.org/1999/xlink" x="0px" y="0px"
	 viewBox="0 0 48 48" style="enable-background:new 0 0 48 48;" xml:space="preserve">
<style type="text/css">
	.st0{fill:#3F0E40;}
</style>
<path class="st0" d="M8.3,43.6V12.2h8.3v-0.5c0-2.1,0.7-3.8,2.2-5.2c1.4-1.5,3.1-2.2,5.2-2.2s3.8,0.7,5.2,2.2
	c1.4,1.4,2.2,3.1,2.2,5.2v0.5h8.3v31.4H8.3z M19.6,11.7v0.5h8.8v-0.5c0-1.3-0.4-2.3-1.3-3.1c-0.9-0.9-1.9-1.3-3.1-1.3
	s-2.3,0.4-3.1,1.3C20,9.5,19.6,10.5,19.6,11.7z M11.3,40.7h25.5V15.2h-5.4v5.9h-2.9v-5.9h-8.8v5.9h-2.9v-5.9h-5.4V40.7z M11.3,40.7
	V15.2V40.7z"/>
</svg>
