<?xml version="1.0" encoding="utf-8"?>
<!-- Generator: Adobe Illustrator 24.0.0, SVG Export Plug-In . SVG Version: 6.00 Build 0)  -->
<svg version="1.1" id="Layer_1" xmlns="http://www.w3.org/2000/svg" xmlns:xlink="http://www.w3.org/1999/xlink" x="0px" y="0px"
	 viewBox="0 0 48 48" style="enable-background:new 0 0 48 48;" xml:space="preserve">
<style type="text/css">
	.st0{fill:#3F0E40;}
</style>
<path class="st0" d="M5.2,41.7c-0.9,0-1.7-0.3-2.3-1c-0.7-0.7-1-1.4-1-2.3V9.6c0-0.9,0.3-1.7,1-2.3s1.4-1,2.3-1h37.5
	c0.9,0,1.7,0.3,2.3,1c0.7,0.7,1,1.4,1,2.3v28.7c0,0.9-0.3,1.7-1,2.3c-0.7,0.7-1.4,1-2.3,1H5.2z M5.2,38.4h37.5V14.3H5.2V38.4z
	 M17.4,26.3l-4.6-4.6c-0.3-0.3-0.5-0.7-0.5-1.2c0-0.4,0.2-0.8,0.5-1.2c0.3-0.3,0.7-0.5,1.2-0.5s0.8,0.2,1.2,0.5l5.7,5.7
	c0.3,0.3,0.5,0.7,0.5,1.2c0,0.4-0.2,0.8-0.5,1.2l-5.7,5.7c-0.3,0.3-0.7,0.5-1.2,0.5s-0.8-0.2-1.2-0.5s-0.5-0.7-0.5-1.2
	c0-0.4,0.2-0.8,0.5-1.2L17.4,26.3z M26.2,34.6c-0.5,0-0.9-0.2-1.2-0.5s-0.5-0.7-0.5-1.2c0-0.5,0.2-0.9,0.5-1.2s0.7-0.5,1.2-0.5H35
	c0.5,0,0.9,0.2,1.2,0.5s0.5,0.7,0.5,1.2c0,0.5-0.2,0.9-0.5,1.2s-0.7,0.5-1.2,0.5H26.2z"/>
</svg>
