<?xml version="1.0" encoding="utf-8"?>
<!-- Generator: Adobe Illustrator 17.0.0, SVG Export Plug-In . SVG Version: 6.00 Build 0)  -->
<!DOCTYPE svg PUBLIC "-//W3C//DTD SVG 1.1//EN" "http://www.w3.org/Graphics/SVG/1.1/DTD/svg11.dtd">
<svg version="1.1" id="Layer_1" xmlns="http://www.w3.org/2000/svg" xmlns:xlink="http://www.w3.org/1999/xlink" x="0px" y="0px"
	 width="109.826px" height="62.139px" viewBox="0 0 109.826 62.139" enable-background="new 0 0 109.826 62.139"
	 xml:space="preserve">
<g>
	<g>
		<path fill="#FB1F4C" d="M0,18.998c-0.019-2.068,1.423-4.619,3.204-5.67L24.443,0.806c1.781-1.05,4.712-1.077,6.512-0.06
			l21.464,12.131c1.8,1.018,3.289,3.542,3.308,5.61l0.226,24.654c0.019,2.068-1.423,4.619-3.204,5.67L31.511,61.334
			c-1.781,1.05-4.712,1.077-6.512,0.06L3.534,49.262c-1.8-1.018-3.289-3.542-3.308-5.61L0,18.998z"/>
		<g>
			<g>
				<path fill="#FFFFFF" d="M48.726,37.204c0,0.502-0.497,0.913-1.106,0.913H8.333c-0.608,0-1.106-0.411-1.106-0.913
					s0.497-0.913,1.106-0.913H47.62C48.228,36.291,48.726,36.702,48.726,37.204z"/>
			</g>
			<g>
				<path fill="#FFFFFF" d="M40.374,40.128c0,0.507-0.46,0.923-1.022,0.923H16.601c-0.562,0-1.022-0.415-1.022-0.923
					s0.46-0.923,1.022-0.923h22.751C39.914,39.206,40.374,39.621,40.374,40.128z"/>
			</g>
			<path fill="#FFFFFF" d="M43.308,35.19H12.645c0-8.013,6.147-14.59,13.983-15.272c0.006-0.74,0.608-1.337,1.349-1.337
				c0.741,0,1.343,0.598,1.349,1.337C37.161,20.6,43.308,27.177,43.308,35.19z"/>
		</g>
	</g>
	<g>
		<path fill="#FB1F4C" d="M73.652,31.147c0.011,0.457-0.037,0.903-0.143,1.338c-0.106,0.435-0.26,0.85-0.461,1.245
			c-0.2,0.396-0.449,0.764-0.745,1.104s-0.633,0.638-1.013,0.895c-0.792,0.534-1.663,0.838-2.612,0.91
			c-0.948,0.073-1.853-0.092-2.712-0.493c-0.413-0.2-0.795-0.448-1.146-0.743c-0.352-0.296-0.659-0.627-0.921-0.995
			c-0.263-0.367-0.48-0.766-0.653-1.195c-0.173-0.429-0.282-0.872-0.326-1.329c-0.012-0.089-0.02-0.175-0.025-0.259
			c-0.006-0.083-0.008-0.17-0.008-0.259v-0.218v-6.854c0-0.29,0.101-0.535,0.303-0.735c0.202-0.201,0.449-0.301,0.742-0.301
			c0.292,0,0.539,0.1,0.741,0.301c0.202,0.2,0.303,0.445,0.303,0.735v2.758v-0.017c0.568-0.423,1.195-0.732,1.881-0.928
			c0.686-0.194,1.385-0.248,2.098-0.158c0.702,0.089,1.365,0.309,1.989,0.66c0.624,0.351,1.154,0.811,1.589,1.379
			c0.345,0.457,0.612,0.956,0.802,1.496C73.524,30.025,73.63,30.579,73.652,31.147z M70.978,33.17
			c0.445-0.623,0.641-1.325,0.585-2.105c-0.022-0.412-0.123-0.806-0.301-1.179s-0.411-0.705-0.7-0.995
			c-0.146-0.134-0.298-0.25-0.46-0.351c-0.161-0.101-0.33-0.195-0.509-0.284c-0.423-0.189-0.862-0.284-1.318-0.284
			s-0.896,0.089-1.319,0.268c-0.423,0.189-0.791,0.451-1.103,0.785c-0.313,0.335-0.547,0.714-0.702,1.137
			c-0.201,0.568-0.242,1.148-0.126,1.739c0.117,0.591,0.371,1.114,0.761,1.571c0.301,0.356,0.657,0.624,1.07,0.802
			c0.1,0.057,0.203,0.106,0.309,0.15c0.106,0.045,0.215,0.09,0.326,0.134c-0.089-0.033-0.179-0.069-0.268-0.108
			c-0.09-0.039-0.179-0.081-0.268-0.125c0.701,0.312,1.424,0.362,2.17,0.15c0.378-0.101,0.727-0.262,1.043-0.485
			C70.485,33.766,70.756,33.494,70.978,33.17z"/>
		<path fill="#FB1F4C" d="M84.818,25.882c0.29,0,0.535,0.104,0.735,0.31c0.201,0.206,0.301,0.454,0.301,0.744v4.346
			c0,0.735-0.142,1.43-0.426,2.081c-0.284,0.652-0.669,1.221-1.153,1.705c-0.485,0.485-1.054,0.869-1.705,1.153
			c-0.652,0.284-1.346,0.427-2.081,0.427c-0.747,0-1.446-0.143-2.099-0.427c-0.651-0.284-1.22-0.668-1.705-1.153
			c-0.484-0.484-0.869-1.053-1.153-1.705c-0.284-0.651-0.426-1.346-0.426-2.081v-4.346c0-0.29,0.103-0.538,0.309-0.744
			s0.454-0.31,0.744-0.31s0.535,0.104,0.735,0.309c0.201,0.206,0.301,0.453,0.301,0.742v4.338c0,0.456,0.087,0.882,0.26,1.277
			c0.173,0.395,0.406,0.742,0.702,1.042c0.295,0.301,0.644,0.537,1.045,0.709c0.4,0.173,0.83,0.259,1.287,0.259
			c0.445,0,0.869-0.086,1.271-0.259c0.4-0.172,0.752-0.408,1.053-0.709c0.301-0.3,0.537-0.647,0.71-1.042
			c0.173-0.396,0.26-0.821,0.26-1.277h-0.017v-4.338c0-0.289,0.103-0.536,0.309-0.742C84.28,25.985,84.528,25.882,84.818,25.882z"/>
		<path fill="#FB1F4C" d="M96.52,35.611c0,0.233-0.075,0.448-0.226,0.644s-0.343,0.32-0.576,0.376
			c-0.245,0.056-0.482,0.025-0.711-0.092s-0.393-0.293-0.493-0.526c-0.045-0.111-0.066-0.224-0.066-0.335s-0.012-0.229-0.034-0.351
			c-0.033-0.301-0.1-0.585-0.2-0.853c-0.212-0.502-0.507-0.92-0.886-1.254c-0.468-0.424-1.02-0.686-1.655-0.786
			c-0.156-0.033-0.31-0.05-0.46-0.05s-0.304,0-0.459,0h-0.937c-0.045,0-0.066,0.011-0.066,0.033v0.201v1.938v0.836
			c0,0.111-0.003,0.221-0.009,0.326c-0.006,0.106-0.036,0.209-0.092,0.31c-0.101,0.223-0.262,0.393-0.485,0.51
			c-0.223,0.117-0.457,0.147-0.701,0.092c-0.234-0.056-0.427-0.179-0.577-0.368s-0.226-0.406-0.226-0.651v-1.254v-3.093v-3.109
			c0-0.211-0.003-0.42-0.009-0.627c-0.006-0.206-0.003-0.415,0.009-0.627c0-0.245,0.083-0.462,0.251-0.651
			c0.167-0.189,0.367-0.307,0.602-0.352c0.29-0.044,0.557,0.025,0.803,0.209c0.244,0.185,0.384,0.421,0.417,0.711
			c0.022,0.111,0.031,0.223,0.025,0.334s-0.008,0.223-0.008,0.334v1.021v1.387v0.302c0,0.056,0,0.086,0,0.092
			s0.027,0.008,0.083,0.008h0.953c0.011,0,0.042,0.003,0.092,0.009s0.081,0.003,0.092-0.009l0.15-0.251
			c0.078-0.133,0.156-0.267,0.234-0.4s0.156-0.268,0.234-0.401c0.256-0.435,0.512-0.872,0.769-1.313
			c0.256-0.44,0.513-0.878,0.769-1.313c0.056-0.1,0.117-0.197,0.185-0.292c0.066-0.095,0.145-0.176,0.233-0.242
			c0.223-0.156,0.474-0.218,0.753-0.185c0.278,0.033,0.507,0.162,0.685,0.385c0.134,0.167,0.207,0.359,0.218,0.577
			c0.011,0.217-0.039,0.42-0.15,0.609c-0.045,0.067-0.084,0.137-0.117,0.209c-0.033,0.073-0.072,0.143-0.117,0.209l-1.654,2.809
			c0.49,0.2,0.941,0.468,1.354,0.803c0.412,0.334,0.767,0.719,1.062,1.153s0.526,0.902,0.694,1.404
			C96.437,34.557,96.52,35.076,96.52,35.611z"/>
		<path fill="#FB1F4C" d="M103.373,25.882c0.747,0,1.446,0.143,2.099,0.427c0.651,0.284,1.22,0.668,1.705,1.153
			c0.484,0.484,0.869,1.056,1.153,1.713c0.284,0.658,0.426,1.354,0.426,2.09v4.347c0,0.29-0.1,0.534-0.301,0.735
			c-0.2,0.2-0.445,0.301-0.735,0.301s-0.538-0.101-0.744-0.301c-0.206-0.201-0.309-0.445-0.309-0.735v-2.006h-3.294v-0.018
			c-0.033,0.012-0.095,0.018-0.184,0.018c-0.367,0-0.719,0.056-1.053,0.167c-0.335,0.111-0.639,0.268-0.911,0.468
			c-0.273,0.2-0.51,0.44-0.711,0.719c-0.2,0.278-0.351,0.585-0.451,0.92c-0.011,0.011-0.017,0.022-0.017,0.033
			s-0.006,0.022-0.017,0.033c-0.067,0.212-0.189,0.382-0.368,0.51c-0.178,0.128-0.384,0.192-0.618,0.192
			c-0.29,0-0.535-0.101-0.735-0.301c-0.201-0.201-0.301-0.445-0.301-0.735v-0.15v-4.196c0-0.657,0.111-1.276,0.334-1.855
			c0.268-0.713,0.669-1.349,1.203-1.905c0.502-0.502,1.079-0.897,1.73-1.188C101.928,26.027,102.627,25.882,103.373,25.882z
			 M106.667,31.515v-0.251c0-0.579-0.14-1.114-0.418-1.604c0-0.011-0.003-0.02-0.009-0.025s-0.008-0.014-0.008-0.025
			c-0.045-0.066-0.09-0.134-0.134-0.2c-0.045-0.066-0.09-0.128-0.134-0.184c-0.301-0.391-0.675-0.696-1.12-0.92
			c-0.446-0.223-0.937-0.334-1.472-0.334c-0.534,0-1.027,0.12-1.479,0.359c-0.451,0.239-0.827,0.555-1.128,0.944
			c-0.212,0.278-0.376,0.585-0.493,0.92c-0.117,0.334-0.176,0.69-0.176,1.069v1.237c0.435-0.313,0.914-0.555,1.438-0.728
			c0.524-0.173,1.076-0.259,1.655-0.259h0.184H106.667z"/>
	</g>
</g>
</svg>
