<?xml version="1.0" encoding="utf-8"?>
<!-- Generator: Adobe Illustrator 24.0.0, SVG Export Plug-In . SVG Version: 6.00 Build 0)  -->
<svg version="1.1" id="Layer_1" xmlns="http://www.w3.org/2000/svg" xmlns:xlink="http://www.w3.org/1999/xlink" x="0px" y="0px"
	 viewBox="0 0 540 540" style="enable-background:new 0 0 540 540;" xml:space="preserve">
<style type="text/css">
	.st0{fill:#FBE6FF;}
	.st1{fill:url(#SVGID_1_);}
	.st2{fill:url(#SVGID_2_);}
</style>
<g>
	
		<image style="overflow:visible;opacity:0.1;" width="2358" height="2357" xlink:href="D6F88946.png"  transform="matrix(0.24 0 0 0.24 -12.9701 -12.9701)">
	</image>
	<g>
		
			<image style="overflow:visible;opacity:0.1;" width="2269" height="2269" xlink:href="D6F88941.png"  transform="matrix(0.24 0 0 0.24 -0.2501 -0.2501)">
		</image>
		<g>
			<circle class="st0" cx="270" cy="270" r="260.3"/>
		</g>
	</g>
</g>
<linearGradient id="SVGID_1_" gradientUnits="userSpaceOnUse" x1="113.9478" y1="453.7459" x2="429.6049" y2="82.0709">
	<stop  offset="0" style="stop-color:#DA5FEA"/>
	<stop  offset="0.9828" style="stop-color:#C655F7"/>
</linearGradient>
<circle class="st1" cx="270" cy="270" r="241"/>
<path class="st0" d="M403,323.6c2.9-7.2,2.9-7.2,2.9-7.2c2.2-8.1,10.9-14.8,19.3-14.8l12-0.1c8.5-0.1,15.3-7,15.3-15.5l-0.3-34.7
	c-0.1-8.5-7-15.3-15.5-15.3l-12,0.1c-8.5,0.1-17.6-6.5-20.2-14.5l-6.1-14.4c-3.9-7.5-2.3-18.6,3.7-24.6l8.4-8.6
	c5.9-6,5.9-15.8-0.2-21.7l-24.8-24.4c-6-5.9-15.8-5.9-21.7,0.2l-8.4,8.5c-5.9,6-16.8,7.6-24.2,3.5c0,0-0.2-0.1-7.6-3.1
	c-7.2-2.9-7.2-2.9-7.2-2.9c-8.1-2.2-14.8-10.9-14.8-19.3l-0.1-12c-0.1-8.5-7-15.3-15.5-15.3l-34.7,0.3c-8.5,0.1-15.3,7-15.3,15.5
	l0.1,12c0.1,8.5-6.5,17.6-14.5,20.2l-14.4,6.1c-7.5,3.9-18.6,2.3-24.6-3.7l-8.6-8.4c-6-5.9-15.8-5.9-21.7,0.2l-24.4,24.8
	c-5.9,6-5.9,15.8,0.2,21.7l8.5,8.4c6,5.9,7.6,16.8,3.5,24.2c0,0-0.1,0.2-3.1,7.6c-2.9,7.2-2.9,7.2-2.9,7.2
	c-2.2,8.1-10.9,14.8-19.3,14.8l-12,0.1c-8.5,0.1-15.3,7-15.3,15.5l0.3,34.7c0.1,8.5,7,15.3,15.5,15.3l12-0.1
	c8.5-0.1,17.6,6.5,20.2,14.5l6.1,14.4c3.9,7.5,2.3,18.6-3.7,24.6l-8.4,8.6c-5.9,6-5.9,15.8,0.2,21.7l24.8,24.4
	c6,5.9,15.8,5.9,21.7-0.2l8.4-8.5c5.9-6,16.8-7.6,24.2-3.5c0,0,0.2,0.1,7.6,3.1c7.2,2.9,7.2,2.9,7.2,2.9
	c8.1,2.2,14.8,10.9,14.8,19.3l0.1,12c0.1,8.5,7,15.3,15.5,15.3l34.7-0.3c8.5-0.1,15.3-7,15.3-15.5l-0.1-12
	c-0.1-8.5,6.5-17.6,14.5-20.2l14.4-6.1c7.5-3.9,18.6-2.3,24.6,3.7l8.6,8.4c6,5.9,15.8,5.9,21.7-0.2l24.4-24.8
	c5.9-6,5.9-15.8-0.2-21.7l-8.5-8.4c-6-5.9-7.6-16.8-3.5-24.2C399.9,331.2,400,331,403,323.6z"/>
<linearGradient id="SVGID_2_" gradientUnits="userSpaceOnUse" x1="232.6015" y1="319.553" x2="303.7355" y2="225.3005">
	<stop  offset="0" style="stop-color:#DA5FEA"/>
	<stop  offset="0.9828" style="stop-color:#C655F7"/>
</linearGradient>
<circle class="st2" cx="270" cy="270" r="61.3"/>
</svg>
