<?xml version="1.0" encoding="utf-8"?>
<!-- Generator: Adobe Illustrator 24.0.0, SVG Export Plug-In . SVG Version: 6.00 Build 0)  -->
<svg version="1.1" id="Layer_1" xmlns="http://www.w3.org/2000/svg" xmlns:xlink="http://www.w3.org/1999/xlink" x="0px" y="0px"
	 viewBox="0 0 1063.6 1063.6" style="enable-background:new 0 0 1063.6 1063.6;" xml:space="preserve">
<style type="text/css">
	.st0{fill:#3F0E40;}
	.st1{fill:#FBE6FF;}
	.st2{fill:url(#SVGID_1_);}
	.st3{fill:url(#SVGID_2_);}
</style>
<path id="gear" class="st0" d="M731.6,39.1C459.5-71.2,149.5,59.9,39.1,331.9S59.9,914,331.9,1024.4s582.1-20.7,692.5-292.8
	C1134.8,459.5,1003.7,149.5,731.6,39.1z M900.5,602l-26.5,0.1c-18.7,0.1-37.9,14.8-42.7,32.6c0,0,0,0-6.5,16
	c-6.6,16.3-6.8,16.7-6.8,16.7c-9.1,16.3-5.7,40.4,7.6,53.5l18.8,18.6c13.3,13.1,13.4,34.7,0.3,48l-53.9,54.5
	c-13.1,13.3-34.7,13.4-48,0.3l-18.8-18.6c-13.3-13.1-37.7-16.8-54.2-8.2L638,828.7c-17.7,5.8-32.1,25.9-32,44.5l0.1,26.5
	c0.1,18.7-15.1,34-33.7,34.1l-76.6,0.4c-18.6,0.1-34-15.1-34.1-33.7l-0.1-26.5c-0.1-18.7-14.8-37.9-32.6-42.7c0,0,0,0-16-6.5
	c-16.3-6.6-16.7-6.8-16.7-6.8c-16.3-9.1-40.4-5.7-53.5,7.6l-18.6,18.8c-13.1,13.3-34.7,13.4-48,0.3l-54.5-53.9
	c-13.3-13.1-13.4-34.7-0.3-48l18.6-18.8c13.1-13.3,16.8-37.7,8.2-54.2L234.8,638c-5.8-17.7-25.9-32.1-44.5-32l-26.5,0.1
	c-18.7,0.1-34-15.1-34.1-33.7l-0.4-76.6c-0.1-18.7,15.1-34,33.7-34.1l26.5-0.1c18.7-0.1,37.9-14.8,42.7-32.6c0,0,0,0,6.5-16
	c6.6-16.3,6.8-16.7,6.8-16.7c9.1-16.3,5.7-40.4-7.6-53.5l-18.8-18.6c-13.3-13.1-13.4-34.7-0.3-48l53.9-54.5
	c13.1-13.3,34.7-13.4,48-0.3l18.8,18.6c13.3,13.1,37.7,16.8,54.2,8.2l31.9-13.4c17.7-5.8,32.1-25.9,32-44.5l-0.1-26.5
	c-0.1-18.7,15.1-34,33.7-34.1l76.7-0.4c18.7-0.1,34,15.1,34.1,33.7l0.1,26.5c0.1,18.7,14.8,37.9,32.6,42.7c0,0,0,0,16,6.5
	c16.3,6.6,16.7,6.8,16.7,6.8c16.3,9.1,40.4,5.7,53.5-7.6l18.6-18.8c13.1-13.3,34.7-13.4,48-0.3l54.5,53.9
	c13.3,13.1,13.4,34.7,0.3,48l-18.6,18.8c-13.1,13.3-16.8,37.7-8.2,54.2l13.4,31.9c5.8,17.7,25.9,32.1,44.5,32l26.5-0.1
	c18.7-0.1,34,15.1,34.1,33.7l0.4,76.6C934.4,586.5,919.2,601.9,900.5,602z"/>
<path id="core" class="st0" d="M657.1,582.6c-28.1,69.2-107,102.6-176.2,74.5c-69.2-28.1-102.6-107-74.5-176.2
	c28.1-69.2,107-102.6,176.2-74.5C651.8,434.5,685.2,513.4,657.1,582.6z"/>
<g>
	<g>
		
			<image style="overflow:visible;opacity:0.1;" width="1158" height="1158" xlink:href="D6F88945.png"  transform="matrix(1 0 0 1 -47.0595 -46.5095)">
		</image>
		<g>
			
				<image style="overflow:visible;opacity:0.1;" width="1114" height="1115" xlink:href="D6F88947.png"  transform="matrix(1 0 0 1 -21.0595 -20.5095)">
			</image>
			<g>
				<circle class="st1" cx="531.5" cy="532.4" r="532.2"/>
			</g>
		</g>
	</g>
	<linearGradient id="SVGID_1_" gradientUnits="userSpaceOnUse" x1="212.4728" y1="907.9826" x2="857.7123" y2="148.2359">
		<stop  offset="0" style="stop-color:#DA5FEA"/>
		<stop  offset="0.9828" style="stop-color:#C655F7"/>
	</linearGradient>
	<circle class="st2" cx="531.5" cy="532.4" r="492.6"/>
	<path class="st1" d="M803.3,642c6-14.8,6-14.8,6-14.8c4.4-16.5,22.2-30.2,39.5-30.3l24.5-0.2c17.3-0.1,31.3-14.4,31.2-31.7l-0.5-71
		c-0.1-17.3-14.4-31.3-31.7-31.2l-24.5,0.2c-17.3,0.1-35.9-13.2-41.3-29.6L794,403.9c-8-15.3-4.6-38,7.5-50.3l17.2-17.5
		c12.1-12.3,12-32.3-0.3-44.5l-50.6-49.8c-12.3-12.1-32.3-12-44.5,0.3l-17.2,17.5c-12.1,12.3-34.4,15.5-49.5,7.1
		c0,0-0.3-0.2-15.5-6.3c-14.8-6-14.8-6-14.8-6c-16.5-4.4-30.2-22.2-30.3-39.5l-0.2-24.5c-0.1-17.3-14.4-31.3-31.7-31.2l-71,0.5
		c-17.3,0.1-31.3,14.4-31.2,31.7l0.2,24.5c0.1,17.3-13.2,35.9-29.6,41.3L403,269.9c-15.3,8-38,4.6-50.3-7.5l-17.5-17.2
		c-12.3-12.1-32.3-12-44.5,0.3l-49.8,50.6c-12.1,12.3-12,32.3,0.3,44.5l17.5,17.2c12.3,12.1,15.5,34.4,7.1,49.5
		c0,0-0.2,0.3-6.3,15.5c-6,14.8-6,14.8-6,14.8c-4.4,16.5-22.2,30.2-39.5,30.3l-24.5,0.2c-17.3,0.1-31.3,14.4-31.2,31.7l0.5,71
		c0.1,17.3,14.4,31.3,31.7,31.2l24.5-0.2c17.3-0.1,35.9,13.2,41.3,29.6l12.5,29.5c8,15.3,4.6,38-7.5,50.3l-17.2,17.5
		c-12.1,12.3-12,32.3,0.3,44.5l50.6,49.8c12.3,12.1,32.3,12,44.5-0.3l17.2-17.5c12.1-12.3,34.4-15.5,49.5-7.1c0,0,0.3,0.2,15.5,6.3
		c14.8,6,14.8,6,14.8,6c16.5,4.4,30.2,22.2,30.3,39.5l0.2,24.5c0.1,17.3,14.4,31.3,31.7,31.2l71-0.5c17.3-0.1,31.3-14.4,31.2-31.7
		l-0.2-24.5c-0.1-17.3,13.2-35.9,29.6-41.3l29.5-12.5c15.3-8,38-4.6,50.3,7.5l17.5,17.2c12.3,12.1,32.3,12,44.5-0.3l49.8-50.6
		c12.1-12.3,12-32.3-0.3-44.5L804.2,707c-12.3-12.1-15.5-34.4-7.1-49.5C797,657.5,797.2,657.1,803.3,642z"/>
	<linearGradient id="SVGID_2_" gradientUnits="userSpaceOnUse" x1="455.0146" y1="633.6768" x2="600.4207" y2="441.0137">
		<stop  offset="0" style="stop-color:#DA5FEA"/>
		<stop  offset="0.9828" style="stop-color:#C655F7"/>
	</linearGradient>
	<circle class="st3" cx="531.5" cy="532.4" r="125.3"/>
</g>
</svg>
